# xmcd
#
# Track frame offsets: 
#        150
#        16621
#        30358
#        45563
#        59640
#        76682
#        90046
#        103138
#        119662
#        134009
#        151365
#        161193
#        181990
#
# Disc length: 2615 seconds
#
# Revision: 5
# Processed by: cddbd v1.5.2PL0 Copyright (c) Steve Scherf et al.
# Submitted via: ExactAudioCopy v1.3
#
DISCID=9c0a350d
DTITLE=Great Speckled Bird - Great Speckled Bird
DYEAR=1969
DGENRE=Country
TTITLE0=Love What You're Doing Child
TTITLE1=Calgary
TTITLE2=Truckers Cafe
TTITLE3=Long Long Time To Get Old
TTITLE4=Flies In The Bottle
TTITLE5=Bloodshot Beholder
TTITLE6=Crazy Arms
TTITLE7=This Dream
TTITLE8=Smiling Wine
TTITLE9=Rio Grande
TTITLE10=Disappearing Woman
TTITLE11=We Sail
TTITLE12=New Truckers Cafe (Live Version)
EXTD=
EXTT0=
EXTT1=
EXTT2=
EXTT3=
EXTT4=
EXTT5=
EXTT6=
EXTT7=
EXTT8=
EXTT9=
EXTT10=
EXTT11=
EXTT12=Bonus Track - Live Version
PLAYORDER=
